<svg width="1603" height="822" viewBox="0 0 1603 822" fill="none" xmlns="http://www.w3.org/2000/svg">
<path d="M1435.24 619.507C1427.92 646.832 1401.87 667.977 1360.55 682.663C1319.26 697.336 1262.96 705.469 1195.6 706.935C1060.88 709.865 882.162 686.13 691.379 635.01C500.596 583.89 333.95 515.084 218.749 445.188C161.142 410.237 116.451 375.043 88.0316 341.692C59.5881 308.312 47.608 276.98 54.9299 249.654C62.2518 222.329 88.2928 201.184 129.616 186.498C170.903 171.825 227.204 163.692 294.568 162.227C429.283 159.296 608.006 183.031 798.789 234.151C989.571 285.271 1156.22 354.077 1271.42 423.973C1329.03 458.924 1373.72 494.118 1402.14 527.469C1430.58 560.849 1442.56 592.181 1435.24 619.507Z" stroke="#252C38" stroke-width="2"/>
<path d="M1547.24 571.507C1539.92 598.832 1513.87 619.977 1472.55 634.663C1431.26 649.336 1374.96 657.469 1307.6 658.935C1172.88 661.865 994.162 638.13 803.379 587.01C612.596 535.89 445.95 467.084 330.749 397.188C273.142 362.237 228.451 327.043 200.032 293.692C171.588 260.312 159.608 228.98 166.93 201.654C174.252 174.329 200.293 153.184 241.616 138.498C282.903 123.825 339.204 115.692 406.568 114.227C541.283 111.296 720.006 135.031 910.789 186.151C1101.57 237.271 1268.22 306.077 1383.42 375.973C1441.03 410.924 1485.72 446.118 1514.14 479.469C1542.58 512.849 1554.56 544.181 1547.24 571.507Z" stroke="#252C38" stroke-width="2"/>
</svg>
