<svg width="141" height="141" viewBox="0 0 141 141" fill="none" xmlns="http://www.w3.org/2000/svg">
<path d="M70.5 0L79.8743 11.3128L92.2857 3.45052L97.7054 17.1064L111.939 13.4643L112.873 28.1266L127.536 29.0611L123.894 43.2946L137.549 48.7143L129.687 61.1257L141 70.5L129.687 79.8743L137.549 92.2857L123.894 97.7054L127.536 111.939L112.873 112.873L111.939 127.536L97.7054 123.894L92.2857 137.549L79.8743 129.687L70.5 141L61.1257 129.687L48.7143 137.549L43.2946 123.894L29.0611 127.536L28.1266 112.873L13.4643 111.939L17.1064 97.7054L3.45052 92.2857L11.3128 79.8743L0 70.5L11.3128 61.1257L3.45052 48.7143L17.1064 43.2946L13.4643 29.0611L28.1266 28.1266L29.0611 13.4643L43.2946 17.1064L48.7143 3.45052L61.1257 11.3128L70.5 0Z" fill="#FFDC6C"/>
</svg>
