<svg width="145" height="145" viewBox="0 0 145 145" fill="none" xmlns="http://www.w3.org/2000/svg">
<path d="M72.5 0L76.8321 45.1484L94.9037 3.5484L85.0722 47.8258L115.114 13.8463L92.0816 52.9184L131.154 29.8856L97.1742 59.9279L141.452 50.0963L99.8516 68.1679L145 72.5L99.8516 76.8321L141.452 94.9037L97.1742 85.0722L131.154 115.114L92.0816 92.0816L115.114 131.154L85.0722 97.1742L94.9037 141.452L76.8321 99.8516L72.5 145L68.1679 99.8516L50.0963 141.452L59.9279 97.1742L29.8856 131.154L52.9184 92.0816L13.8463 115.114L47.8258 85.0722L3.5484 94.9037L45.1484 76.8321L0 72.5L45.1484 68.1679L3.5484 50.0963L47.8258 59.9279L13.8463 29.8856L52.9184 52.9184L29.8856 13.8463L59.9279 47.8258L50.0963 3.5484L68.1679 45.1484L72.5 0Z" fill="#BAC0CB"/>
</svg>
